# xmcd
#
# Track frame offsets:
#	150
#	14137
#	28350
#	44212
#	61100
#	86225
#	104725
#	122300
#	145137
#	159900
#	180450
#
# Disc length: 2622 seconds
#
# Revision: 1
# Processed by: cddbd v1.5.1PL0 Copyright (c) Steve Scherf et al.
# Submitted via: CDex 1.50Beta5
#
DISCID=9a0a3c0b
DTITLE=さまざまなアーティスト - No.1 HIT SELECTION OF U.K.
DYEAR=1900
DGENRE=Rock
TTITLE0=This Ole House
TTITLE1=Stand And Deliver
TTITLE2=Goody Two Shoes
TTITLE3=Down Under
TTITLE4=Total Eclipse Of The Heart
TTITLE5=Give It Up
TTITLE6=99 Luftballons
TTITLE7=Freedom
TTITLE8=You Spin Me Round
TTITLE9=A Different Corner
TTITLE10=I Owe You Nothing Bros
EXTD=
EXTT0=
EXTT1=
EXTT2=
EXTT3=
EXTT4=
EXTT5=
EXTT6=
EXTT7=
EXTT8=
EXTT9=
EXTT10=
PLAYORDER=
